<svg id="visual" viewBox="0 0 960 540" width="960" height="540" xmlns="http://www.w3.org/2000/svg" xmlns:xlink="http://www.w3.org/1999/xlink" version="1.1"><rect x="0" y="0" width="960" height="540" fill="#001220"></rect><defs><linearGradient id="grad1_0" x1="43.8%" y1="0%" x2="100%" y2="100%"><stop offset="14.444444444444446%" stop-color="#d92650" stop-opacity="1"></stop><stop offset="85.55555555555554%" stop-color="#d92650" stop-opacity="1"></stop></linearGradient></defs><defs><linearGradient id="grad1_1" x1="43.8%" y1="0%" x2="100%" y2="100%"><stop offset="14.444444444444446%" stop-color="#d92650" stop-opacity="1"></stop><stop offset="85.55555555555554%" stop-color="#bb1f62" stop-opacity="1"></stop></linearGradient></defs><defs><linearGradient id="grad1_2" x1="43.8%" y1="0%" x2="100%" y2="100%"><stop offset="14.444444444444446%" stop-color="#96246b" stop-opacity="1"></stop><stop offset="85.55555555555554%" stop-color="#bb1f62" stop-opacity="1"></stop></linearGradient></defs><defs><linearGradient id="grad1_3" x1="43.8%" y1="0%" x2="100%" y2="100%"><stop offset="14.444444444444446%" stop-color="#96246b" stop-opacity="1"></stop><stop offset="85.55555555555554%" stop-color="#6e2a6b" stop-opacity="1"></stop></linearGradient></defs><defs><linearGradient id="grad1_4" x1="43.8%" y1="0%" x2="100%" y2="100%"><stop offset="14.444444444444446%" stop-color="#472a61" stop-opacity="1"></stop><stop offset="85.55555555555554%" stop-color="#6e2a6b" stop-opacity="1"></stop></linearGradient></defs><defs><linearGradient id="grad1_5" x1="43.8%" y1="0%" x2="100%" y2="100%"><stop offset="14.444444444444446%" stop-color="#472a61" stop-opacity="1"></stop><stop offset="85.55555555555554%" stop-color="#25264f" stop-opacity="1"></stop></linearGradient></defs><defs><linearGradient id="grad1_6" x1="43.8%" y1="0%" x2="100%" y2="100%"><stop offset="14.444444444444446%" stop-color="#0a1e38" stop-opacity="1"></stop><stop offset="85.55555555555554%" stop-color="#25264f" stop-opacity="1"></stop></linearGradient></defs><defs><linearGradient id="grad1_7" x1="43.8%" y1="0%" x2="100%" y2="100%"><stop offset="14.444444444444446%" stop-color="#0a1e38" stop-opacity="1"></stop><stop offset="85.55555555555554%" stop-color="#001220" stop-opacity="1"></stop></linearGradient></defs><defs><linearGradient id="grad2_0" x1="0%" y1="0%" x2="56.3%" y2="100%"><stop offset="14.444444444444446%" stop-color="#d92650" stop-opacity="1"></stop><stop offset="85.55555555555554%" stop-color="#d92650" stop-opacity="1"></stop></linearGradient></defs><defs><linearGradient id="grad2_1" x1="0%" y1="0%" x2="56.3%" y2="100%"><stop offset="14.444444444444446%" stop-color="#bb1f62" stop-opacity="1"></stop><stop offset="85.55555555555554%" stop-color="#d92650" stop-opacity="1"></stop></linearGradient></defs><defs><linearGradient id="grad2_2" x1="0%" y1="0%" x2="56.3%" y2="100%"><stop offset="14.444444444444446%" stop-color="#bb1f62" stop-opacity="1"></stop><stop offset="85.55555555555554%" stop-color="#96246b" stop-opacity="1"></stop></linearGradient></defs><defs><linearGradient id="grad2_3" x1="0%" y1="0%" x2="56.3%" y2="100%"><stop offset="14.444444444444446%" stop-color="#6e2a6b" stop-opacity="1"></stop><stop offset="85.55555555555554%" stop-color="#96246b" stop-opacity="1"></stop></linearGradient></defs><defs><linearGradient id="grad2_4" x1="0%" y1="0%" x2="56.3%" y2="100%"><stop offset="14.444444444444446%" stop-color="#6e2a6b" stop-opacity="1"></stop><stop offset="85.55555555555554%" stop-color="#472a61" stop-opacity="1"></stop></linearGradient></defs><defs><linearGradient id="grad2_5" x1="0%" y1="0%" x2="56.3%" y2="100%"><stop offset="14.444444444444446%" stop-color="#25264f" stop-opacity="1"></stop><stop offset="85.55555555555554%" stop-color="#472a61" stop-opacity="1"></stop></linearGradient></defs><defs><linearGradient id="grad2_6" x1="0%" y1="0%" x2="56.3%" y2="100%"><stop offset="14.444444444444446%" stop-color="#25264f" stop-opacity="1"></stop><stop offset="85.55555555555554%" stop-color="#0a1e38" stop-opacity="1"></stop></linearGradient></defs><defs><linearGradient id="grad2_7" x1="0%" y1="0%" x2="56.3%" y2="100%"><stop offset="14.444444444444446%" stop-color="#001220" stop-opacity="1"></stop><stop offset="85.55555555555554%" stop-color="#0a1e38" stop-opacity="1"></stop></linearGradient></defs><g transform="translate(960, 0)"><path d="M0 486C-62.4 464.1 -124.9 442.2 -168.4 406.5C-211.9 370.8 -236.5 321.3 -286.4 286.4C-336.3 251.5 -411.5 231.3 -449 186C-486.5 140.7 -486.2 70.3 -486 0L0 0Z" fill="#04182c"></path><path d="M0 425.3C-54.6 406.1 -109.3 386.9 -147.3 355.7C-185.4 324.4 -206.9 281.1 -250.6 250.6C-294.2 220.1 -360.1 202.4 -392.9 162.7C-425.7 123.1 -425.5 61.6 -425.2 0L0 0Z" fill="#162244"></path><path d="M0 364.5C-46.8 348.1 -93.7 331.7 -126.3 304.9C-158.9 278.1 -177.4 240.9 -214.8 214.8C-252.2 188.6 -308.6 173.5 -336.8 139.5C-364.9 105.5 -364.7 52.8 -364.5 0L0 0Z" fill="#352959"></path><path d="M0 303.8C-39 290.1 -78 276.4 -105.2 254.1C-132.4 231.7 -147.8 200.8 -179 179C-210.2 157.2 -257.2 144.5 -280.6 116.2C-304.1 87.9 -303.9 44 -303.7 0L0 0Z" fill="#5a2b67"></path><path d="M0 243C-31.2 232.1 -62.4 221.1 -84.2 203.3C-105.9 185.4 -118.2 160.6 -143.2 143.2C-168.1 125.7 -205.8 115.6 -224.5 93C-243.2 70.3 -243.1 35.2 -243 0L0 0Z" fill="#82286c"></path><path d="M0 182.3C-23.4 174 -46.8 165.8 -63.1 152.4C-79.5 139 -88.7 120.5 -107.4 107.4C-126.1 94.3 -154.3 86.7 -168.4 69.7C-182.4 52.8 -182.3 26.4 -182.2 0L0 0Z" fill="#a92167"></path><path d="M0 121.5C-15.6 116 -31.2 110.6 -42.1 101.6C-53 92.7 -59.1 80.3 -71.6 71.6C-84.1 62.9 -102.9 57.8 -112.3 46.5C-121.6 35.2 -121.6 17.6 -121.5 0L0 0Z" fill="#cb205a"></path><path d="M0 60.8C-7.8 58 -15.6 55.3 -21 50.8C-26.5 46.3 -29.6 40.2 -35.8 35.8C-42 31.4 -51.4 28.9 -56.1 23.2C-60.8 17.6 -60.8 8.8 -60.7 0L0 0Z" fill="#d92650"></path></g><g transform="translate(0, 540)"><path d="M0 -486C67.3 -482.6 134.6 -479.1 186 -449C237.4 -418.9 272.9 -362.1 315.4 -315.4C357.9 -268.6 407.4 -231.9 437 -181C466.6 -130.1 476.3 -65.1 486 0L0 0Z" fill="#04182c"></path><path d="M0 -425.2C58.9 -422.2 117.8 -419.2 162.7 -392.9C207.7 -366.5 238.8 -316.9 275.9 -275.9C313.1 -235 356.5 -202.9 382.4 -158.4C408.3 -113.9 416.8 -56.9 425.3 0L0 0Z" fill="#162244"></path><path d="M0 -364.5C50.5 -361.9 100.9 -359.3 139.5 -336.8C178 -314.2 204.7 -271.6 236.5 -236.5C268.4 -201.5 305.5 -173.9 327.7 -135.8C350 -97.6 357.2 -48.8 364.5 0L0 0Z" fill="#352959"></path><path d="M0 -303.7C42.1 -301.6 84.1 -299.4 116.2 -280.6C148.4 -261.8 170.5 -226.3 197.1 -197.1C223.7 -167.9 254.6 -144.9 273.1 -113.1C291.6 -81.3 297.7 -40.7 303.8 0L0 0Z" fill="#5a2b67"></path><path d="M0 -243C33.6 -241.3 67.3 -239.6 93 -224.5C118.7 -209.4 136.4 -181.1 157.7 -157.7C178.9 -134.3 203.7 -115.9 218.5 -90.5C233.3 -65.1 238.2 -32.5 243 0L0 0Z" fill="#82286c"></path><path d="M0 -182.2C25.2 -181 50.5 -179.7 69.7 -168.4C89 -157.1 102.3 -135.8 118.3 -118.3C134.2 -100.7 152.8 -87 163.9 -67.9C175 -48.8 178.6 -24.4 182.3 0L0 0Z" fill="#a92167"></path><path d="M0 -121.5C16.8 -120.6 33.6 -119.8 46.5 -112.3C59.3 -104.7 68.2 -90.5 78.8 -78.8C89.5 -67.2 101.8 -58 109.2 -45.3C116.7 -32.5 119.1 -16.3 121.5 0L0 0Z" fill="#cb205a"></path><path d="M0 -60.7C8.4 -60.3 16.8 -59.9 23.2 -56.1C29.7 -52.4 34.1 -45.3 39.4 -39.4C44.7 -33.6 50.9 -29 54.6 -22.6C58.3 -16.3 59.5 -8.1 60.8 0L0 0Z" fill="#d92650"></path></g></svg>