<svg id="visual" viewBox="0 0 540 960" width="540" height="960" xmlns="http://www.w3.org/2000/svg" xmlns:xlink="http://www.w3.org/1999/xlink" version="1.1"><rect x="0" y="0" width="540" height="960" fill="#191528"></rect><defs><linearGradient id="grad1_0" x1="0%" y1="0%" x2="100%" y2="100%"><stop offset="30%" stop-color="#d92650" stop-opacity="1"></stop><stop offset="70%" stop-color="#d92650" stop-opacity="1"></stop></linearGradient></defs><defs><linearGradient id="grad1_1" x1="0%" y1="0%" x2="100%" y2="100%"><stop offset="30%" stop-color="#d92650" stop-opacity="1"></stop><stop offset="70%" stop-color="#be1f59" stop-opacity="1"></stop></linearGradient></defs><defs><linearGradient id="grad1_2" x1="0%" y1="0%" x2="100%" y2="100%"><stop offset="30%" stop-color="#a0205d" stop-opacity="1"></stop><stop offset="70%" stop-color="#be1f59" stop-opacity="1"></stop></linearGradient></defs><defs><linearGradient id="grad1_3" x1="0%" y1="0%" x2="100%" y2="100%"><stop offset="30%" stop-color="#a0205d" stop-opacity="1"></stop><stop offset="70%" stop-color="#81235c" stop-opacity="1"></stop></linearGradient></defs><defs><linearGradient id="grad1_4" x1="0%" y1="0%" x2="100%" y2="100%"><stop offset="30%" stop-color="#622356" stop-opacity="1"></stop><stop offset="70%" stop-color="#81235c" stop-opacity="1"></stop></linearGradient></defs><defs><linearGradient id="grad1_5" x1="0%" y1="0%" x2="100%" y2="100%"><stop offset="30%" stop-color="#622356" stop-opacity="1"></stop><stop offset="70%" stop-color="#45214a" stop-opacity="1"></stop></linearGradient></defs><defs><linearGradient id="grad1_6" x1="0%" y1="0%" x2="100%" y2="100%"><stop offset="30%" stop-color="#2c1c3a" stop-opacity="1"></stop><stop offset="70%" stop-color="#45214a" stop-opacity="1"></stop></linearGradient></defs><defs><linearGradient id="grad1_7" x1="0%" y1="0%" x2="100%" y2="100%"><stop offset="30%" stop-color="#2c1c3a" stop-opacity="1"></stop><stop offset="70%" stop-color="#191528" stop-opacity="1"></stop></linearGradient></defs><defs><linearGradient id="grad2_0" x1="0%" y1="0%" x2="100%" y2="100%"><stop offset="30%" stop-color="#d92650" stop-opacity="1"></stop><stop offset="70%" stop-color="#d92650" stop-opacity="1"></stop></linearGradient></defs><defs><linearGradient id="grad2_1" x1="0%" y1="0%" x2="100%" y2="100%"><stop offset="30%" stop-color="#be1f59" stop-opacity="1"></stop><stop offset="70%" stop-color="#d92650" stop-opacity="1"></stop></linearGradient></defs><defs><linearGradient id="grad2_2" x1="0%" y1="0%" x2="100%" y2="100%"><stop offset="30%" stop-color="#be1f59" stop-opacity="1"></stop><stop offset="70%" stop-color="#a0205d" stop-opacity="1"></stop></linearGradient></defs><defs><linearGradient id="grad2_3" x1="0%" y1="0%" x2="100%" y2="100%"><stop offset="30%" stop-color="#81235c" stop-opacity="1"></stop><stop offset="70%" stop-color="#a0205d" stop-opacity="1"></stop></linearGradient></defs><defs><linearGradient id="grad2_4" x1="0%" y1="0%" x2="100%" y2="100%"><stop offset="30%" stop-color="#81235c" stop-opacity="1"></stop><stop offset="70%" stop-color="#622356" stop-opacity="1"></stop></linearGradient></defs><defs><linearGradient id="grad2_5" x1="0%" y1="0%" x2="100%" y2="100%"><stop offset="30%" stop-color="#45214a" stop-opacity="1"></stop><stop offset="70%" stop-color="#622356" stop-opacity="1"></stop></linearGradient></defs><defs><linearGradient id="grad2_6" x1="0%" y1="0%" x2="100%" y2="100%"><stop offset="30%" stop-color="#45214a" stop-opacity="1"></stop><stop offset="70%" stop-color="#2c1c3a" stop-opacity="1"></stop></linearGradient></defs><defs><linearGradient id="grad2_7" x1="0%" y1="0%" x2="100%" y2="100%"><stop offset="30%" stop-color="#191528" stop-opacity="1"></stop><stop offset="70%" stop-color="#2c1c3a" stop-opacity="1"></stop></linearGradient></defs><g transform="translate(540, 0)"><path d="M0 540C-69.4 483.4 -138.8 426.8 -224.5 388.8C-310.2 350.9 -412.3 331.7 -467.7 270C-523 208.3 -531.5 104.2 -540 0L0 0Z" fill="#221932"></path><path d="M0 472.5C-60.7 423 -121.4 373.4 -196.4 340.2C-271.5 307.1 -360.8 290.2 -409.2 236.3C-457.6 182.3 -465 91.1 -472.5 0L0 0Z" fill="#381f43"></path><path d="M0 405C-52 362.5 -104.1 320.1 -168.4 291.6C-232.7 263.2 -309.3 248.8 -350.7 202.5C-392.2 156.2 -398.6 78.1 -405 0L0 0Z" fill="#532250"></path><path d="M0 337.5C-43.4 302.1 -86.7 266.7 -140.3 243C-193.9 219.3 -257.7 207.3 -292.3 168.8C-326.9 130.2 -332.2 65.1 -337.5 0L0 0Z" fill="#712359"></path><path d="M0 270C-34.7 241.7 -69.4 213.4 -112.2 194.4C-155.1 175.5 -206.2 165.8 -233.8 135C-261.5 104.2 -265.7 52.1 -270 0L0 0Z" fill="#90215d"></path><path d="M0 202.5C-26 181.3 -52 160 -84.2 145.8C-116.3 131.6 -154.6 124.4 -175.4 101.3C-196.1 78.1 -199.3 39.1 -202.5 0L0 0Z" fill="#af1f5c"></path><path d="M0 135C-17.3 120.8 -34.7 106.7 -56.1 97.2C-77.6 87.7 -103.1 82.9 -116.9 67.5C-130.7 52.1 -132.9 26 -135 0L0 0Z" fill="#cc2255"></path><path d="M0 67.5C-8.7 60.4 -17.3 53.3 -28.1 48.6C-38.8 43.9 -51.5 41.5 -58.5 33.8C-65.4 26 -66.4 13 -67.5 0L0 0Z" fill="#d92650"></path></g><g transform="translate(0, 960)"><path d="M0 -540C106 -532.5 212 -525.1 270 -467.7C328 -410.2 338 -302.8 375 -216.5C412 -130.2 476 -65.1 540 0L0 0Z" fill="#221932"></path><path d="M0 -472.5C92.8 -466 185.5 -459.5 236.2 -409.2C287 -358.9 295.7 -264.9 328.1 -189.4C360.5 -113.9 416.5 -57 472.5 0L0 0Z" fill="#381f43"></path><path d="M0 -405C79.5 -399.4 159 -393.8 202.5 -350.7C246 -307.7 253.5 -227.1 281.2 -162.4C309 -97.7 357 -48.8 405 0L0 0Z" fill="#532250"></path><path d="M0 -337.5C66.3 -332.8 132.5 -328.2 168.7 -292.3C205 -256.4 211.2 -189.2 234.4 -135.3C257.5 -81.4 297.5 -40.7 337.5 0L0 0Z" fill="#712359"></path><path d="M0 -270C53 -266.3 106 -262.5 135 -233.8C164 -205.1 169 -151.4 187.5 -108.3C206 -65.1 238 -32.6 270 0L0 0Z" fill="#90215d"></path><path d="M0 -202.5C39.8 -199.7 79.5 -196.9 101.2 -175.4C123 -153.8 126.7 -113.5 140.6 -81.2C154.5 -48.8 178.5 -24.4 202.5 0L0 0Z" fill="#af1f5c"></path><path d="M0 -135C26.5 -133.1 53 -131.3 67.5 -116.9C82 -102.6 84.5 -75.7 93.7 -54.1C103 -32.6 119 -16.3 135 0L0 0Z" fill="#cc2255"></path><path d="M0 -67.5C13.3 -66.6 26.5 -65.6 33.7 -58.5C41 -51.3 42.2 -37.8 46.9 -27.1C51.5 -16.3 59.5 -8.1 67.5 0L0 0Z" fill="#d92650"></path></g></svg>