<svg id="visual" viewBox="0 0 960 540" width="960" height="540" xmlns="http://www.w3.org/2000/svg" xmlns:xlink="http://www.w3.org/1999/xlink" version="1.1"><path d="M0 284L10.7 285.2C21.3 286.3 42.7 288.7 64 281.2C85.3 273.7 106.7 256.3 128 244.5C149.3 232.7 170.7 226.3 192 225.7C213.3 225 234.7 230 256 239.5C277.3 249 298.7 263 320 264.5C341.3 266 362.7 255 384 253.2C405.3 251.3 426.7 258.7 448 270.5C469.3 282.3 490.7 298.7 512 301.7C533.3 304.7 554.7 294.3 576 286C597.3 277.7 618.7 271.3 640 270.8C661.3 270.3 682.7 275.7 704 279.8C725.3 284 746.7 287 768 288.3C789.3 289.7 810.7 289.3 832 280.5C853.3 271.7 874.7 254.3 896 245.7C917.3 237 938.7 237 949.3 237L960 237L960 0L949.3 0C938.7 0 917.3 0 896 0C874.7 0 853.3 0 832 0C810.7 0 789.3 0 768 0C746.7 0 725.3 0 704 0C682.7 0 661.3 0 640 0C618.7 0 597.3 0 576 0C554.7 0 533.3 0 512 0C490.7 0 469.3 0 448 0C426.7 0 405.3 0 384 0C362.7 0 341.3 0 320 0C298.7 0 277.3 0 256 0C234.7 0 213.3 0 192 0C170.7 0 149.3 0 128 0C106.7 0 85.3 0 64 0C42.7 0 21.3 0 10.7 0L0 0Z" fill="#ffffff" stroke-linecap="round" stroke-linejoin="miter"></path></svg>