<svg id="visual" viewBox="0 0 960 540" width="960" height="540" xmlns="http://www.w3.org/2000/svg" xmlns:xlink="http://www.w3.org/1999/xlink" version="1.1"><path d="M0 276L11.5 267.7C23 259.3 46 242.7 68.8 223.2C91.7 203.7 114.3 181.3 137.2 193.2C160 205 183 251 205.8 263.5C228.7 276 251.3 255 274.2 270.5C297 286 320 338 342.8 363.5C365.7 389 388.3 388 411.2 368C434 348 457 309 480 276.7C503 244.3 526 218.7 548.8 234.5C571.7 250.3 594.3 307.7 617.2 320.2C640 332.7 663 300.3 685.8 282.8C708.7 265.3 731.3 262.7 754.2 251.3C777 240 800 220 822.8 217.5C845.7 215 868.3 230 891.2 244.8C914 259.7 937 274.3 948.5 281.7L960 289L960 0L948.5 0C937 0 914 0 891.2 0C868.3 0 845.7 0 822.8 0C800 0 777 0 754.2 0C731.3 0 708.7 0 685.8 0C663 0 640 0 617.2 0C594.3 0 571.7 0 548.8 0C526 0 503 0 480 0C457 0 434 0 411.2 0C388.3 0 365.7 0 342.8 0C320 0 297 0 274.2 0C251.3 0 228.7 0 205.8 0C183 0 160 0 137.2 0C114.3 0 91.7 0 68.8 0C46 0 23 0 11.5 0L0 0Z" fill="#ffffff" stroke-linecap="round" stroke-linejoin="miter"></path></svg>