<svg id="visual" viewBox="0 0 960 540" width="960" height="540" xmlns="http://www.w3.org/2000/svg" xmlns:xlink="http://www.w3.org/1999/xlink" version="1.1"><path d="M0 51L11.5 59.7C23 68.3 46 85.7 68.8 77.7C91.7 69.7 114.3 36.3 137.2 29.7C160 23 183 43 205.8 46.7C228.7 50.3 251.3 37.7 274.2 31.5C297 25.3 320 25.7 342.8 40C365.7 54.3 388.3 82.7 411.2 93.2C434 103.7 457 96.3 480 88.5C503 80.7 526 72.3 548.8 61.2C571.7 50 594.3 36 617.2 48.8C640 61.7 663 101.3 685.8 117.5C708.7 133.7 731.3 126.3 754.2 113.7C777 101 800 83 822.8 72C845.7 61 868.3 57 891.2 65.2C914 73.3 937 93.7 948.5 103.8L960 114L960 0L948.5 0C937 0 914 0 891.2 0C868.3 0 845.7 0 822.8 0C800 0 777 0 754.2 0C731.3 0 708.7 0 685.8 0C663 0 640 0 617.2 0C594.3 0 571.7 0 548.8 0C526 0 503 0 480 0C457 0 434 0 411.2 0C388.3 0 365.7 0 342.8 0C320 0 297 0 274.2 0C251.3 0 228.7 0 205.8 0C183 0 160 0 137.2 0C114.3 0 91.7 0 68.8 0C46 0 23 0 11.5 0L0 0Z" fill="#ffffff" stroke-linecap="round" stroke-linejoin="miter"></path></svg>